<svg xmlns="http://www.w3.org/2000/svg" viewBox="0 0 1000 1000" fill="whitesmoke"><path d="M726 124c12 29 21 77 8 113 51 43 68 147 44 233 71 5 157-3 212 19-51-7-122-20-188-15-13 1-32-1-31 17 77 6 154 13 217 32-63-10-139-25-217-27-32 63-97 94-186 101 9 21 28 29 32 62 7 51-10 124 7 158 8 16 21 16 30 30-22 26-76-3-82-30-11-47 16-120-13-151 2 51-12 122 2 168 5 18 22 25 17 41-102 10-59-132-76-216-15 1-8 23-8 33-1 81 16 194-72 183-3-17 12-23 17-39 16-46-3-115 5-170-34 25 3 114-18 159-12 26-50 38-80 26 4-19 24-16 33-34 12-26 0-62 4-100-62 13-111-1-134-41-11-17-14-38-26-53-13-16-34-18-39-39 77-19 80 79 149 82 21 0 32-6 52-11 6-25 17-43 35-56-87-12-158-39-191-104-78 4-150 15-217 31 61-22 135-30 215-33-5-28-46-20-72-19-47 2-107 8-145 15 55-20 132-17 206-17-23-72-15-185 35-227-14-35-10-93 8-121 56 3 89 27 124 50 43-12 88-18 147-15 25 1 51 12 70 11 18-2 38-23 56-31 23-10 43-14 70-15z"/></svg>
